<svg width="16" height="16" viewBox="0 0 16 16" fill="none" xmlns="http://www.w3.org/2000/svg">
<path d="M2 9.5C2 9.03125 2.08854 8.58333 2.26562 8.15625C2.44271 7.72917 2.69531 7.35156 3.02344 7.02344L4.67188 5.375L9.625 10.3281L7.97656 11.9766C7.64844 12.3047 7.27083 12.5573 6.84375 12.7344C6.41667 12.9115 5.96875 13 5.5 13C5.11979 13 4.75 12.9427 4.39062 12.8281C4.03646 12.7083 3.70833 12.5339 3.40625 12.3047L0.851562 14.8516L0.148438 14.1484L2.69531 11.5938C2.46615 11.2917 2.29167 10.9635 2.17188 10.6094C2.05729 10.25 2 9.88021 2 9.5ZM5.5 12.0234C5.82812 12.0234 6.11458 11.9792 6.35938 11.8906C6.60938 11.7969 6.83854 11.6719 7.04688 11.5156C7.25521 11.3594 7.45312 11.1797 7.64062 10.9766C7.83333 10.7734 8.03906 10.5625 8.25781 10.3438L4.65625 6.74219C4.44271 6.95573 4.23177 7.15885 4.02344 7.35156C3.82031 7.54427 3.63802 7.7474 3.47656 7.96094C3.3151 8.16927 3.1849 8.39844 3.08594 8.64844C2.99219 8.89323 2.94531 9.17708 2.94531 9.5C2.94531 9.85938 3.01042 10.1927 3.14062 10.5C3.27604 10.8073 3.45833 11.0755 3.6875 11.3047C3.91667 11.5286 4.1875 11.7057 4.5 11.8359C4.8125 11.9609 5.14583 12.0234 5.5 12.0234ZM13 5.5C13 5.96354 12.9115 6.41146 12.7344 6.84375C12.5573 7.27083 12.3047 7.64844 11.9766 7.97656L10.3203 9.625L5.375 4.67969L7.02344 3.02344C7.35156 2.69531 7.73177 2.44792 8.16406 2.28125C8.59635 2.11458 9.04167 2.03125 9.5 2.03125C9.875 2.03125 10.2422 2.08854 10.6016 2.20312C10.9609 2.3125 11.2917 2.47656 11.5938 2.69531L14.1484 0.148438L14.8516 0.851562L12.3047 3.40625C12.5339 3.70833 12.7057 4.03906 12.8203 4.39844C12.9401 4.7526 13 5.11979 13 5.5ZM10.3438 8.26562C10.5573 8.05729 10.7656 7.85677 10.9688 7.66406C11.1771 7.46615 11.3594 7.26302 11.5156 7.05469C11.6771 6.84115 11.8073 6.60938 11.9062 6.35938C12.0052 6.10938 12.0547 5.82292 12.0547 5.5C12.0547 5.14062 11.987 4.80729 11.8516 4.5C11.7214 4.19271 11.5391 3.92708 11.3047 3.70312C11.0755 3.47396 10.8047 3.29688 10.4922 3.17188C10.1849 3.04167 9.85417 2.97656 9.5 2.97656C9.17188 2.97656 8.88281 3.02344 8.63281 3.11719C8.38802 3.21094 8.15885 3.33594 7.94531 3.49219C7.73698 3.64323 7.53646 3.82031 7.34375 4.02344C7.15625 4.22656 6.95312 4.4375 6.73438 4.65625L10.3438 8.26562Z" fill="#A19F9D"/>
<path d="M15.8516 11.3516L15.1484 10.6484L11.5 14.2891L10.1016 12.8984L9.39844 13.6016L11.5 15.7109L15.8516 11.3516Z" fill="#A19F9D"/>
</svg>
